{
  "accessors": [
    {
      "bufferView": 2,
      "componentType": 5126,
      "count": 9054,
      "max": [
        1.0034242868423462,
        0.91377907991409302,
        0.7824060320854187
      ],
      "min": [
        -1.0034240484237671,
        -0.99022144079208374,
        -0.99262386560440063
      ],
      "type": "VEC3"
    },
    {
      "bufferView": 2,
      "byteOffset": 108648,
      "componentType": 5126,
      "count": 9054,
      "max": [
        0.99985611438751221,
        0.99956178665161133,
        0.99985611438751221
      ],
      "min": [
        -0.99985611438751221,
        -0.99986815452575684,
        -0.99985611438751221
      ],
      "type": "VEC3"
    },
    {
      "bufferView": 1,
      "componentType": 5126,
      "count": 9054,
      "max": [
        1.0002151727676392,
        0.96259891986846924
      ],
      "min": [
        -0.0079030478373169899,
        -0.013943061232566833
      ],
      "type": "VEC2"
    },
    {
      "bufferView": 0,
      "componentType": 5125,
      "count": 15882,
      "max": [
        9053
      ],
      "min": [
        0
      ],
      "type": "SCALAR"
    },
    {
      "bufferView": 2,
      "byteOffset": 217296,
      "componentType": 5126,
      "count": 272,
      "max": [
        0.66775679588317871,
        0.77821964025497437,
        0.86377084255218506
      ],
      "min": [
        -0.66775655746459961,
        -0.51903480291366577,
        -0.6738705039024353
      ],
      "type": "VEC3"
    },
    {
      "bufferView": 2,
      "byteOffset": 220560,
      "componentType": 5126,
      "count": 272,
      "max": [
        0.73508071899414062,
        0.8285757303237915,
        0.99760377407073975
      ],
      "min": [
        -0.73508071899414062,
        -0.53271341323852539,
        -0.65933340787887573
      ],
      "type": "VEC3"
    },
    {
      "bufferView": 1,
      "byteOffset": 72432,
      "componentType": 5126,
      "count": 272,
      "max": [
        0.99491006135940552,
        0.79015713930130005
      ],
      "min": [
        0.0050902627408504486,
        0.31950676441192627
      ],
      "type": "VEC2"
    },
    {
      "bufferView": 0,
      "byteOffset": 63528,
      "componentType": 5125,
      "count": 918,
      "max": [
        271
      ],
      "min": [
        0
      ],
      "type": "SCALAR"
    },
    {
      "bufferView": 2,
      "byteOffset": 223824,
      "componentType": 5126,
      "count": 2145,
      "max": [
        1.0849449634552002,
        0.89399343729019165,
        0.78552782535552979
      ],
      "min": [
        -1.084944486618042,
        -0.99022138118743896,
        -1.0607603788375854
      ],
      "type": "VEC3"
    },
    {
      "bufferView": 2,
      "byteOffset": 249564,
      "componentType": 5126,
      "count": 2145,
      "max": [
        0.99760377407073975,
        0.99594736099243164,
        0.9998481273651123
      ],
      "min": [
        -0.99760377407073975,
        -0.99594736099243164,
        -0.99760377407073975
      ],
      "type": "VEC3"
    },
    {
      "bufferView": 1,
      "byteOffset": 74608,
      "componentType": 5126,
      "count": 2145,
      "max": [
        1,
        0.87041407823562622
      ],
      "min": [
        -0.0087991831824183464,
        0.057430863380432129
      ],
      "type": "VEC2"
    },
    {
      "bufferView": 0,
      "byteOffset": 67200,
      "componentType": 5125,
      "count": 5076,
      "max": [
        2144
      ],
      "min": [
        0
      ],
      "type": "SCALAR"
    },
    {
      "bufferView": 2,
      "byteOffset": 275304,
      "componentType": 5126,
      "count": 753,
      "max": [
        0.71996843814849854,
        0.88861405849456787,
        0.71985995769500732
      ],
      "min": [
        -0.71996825933456421,
        -0.97963935136795044,
        -0.71995723247528076
      ],
      "type": "VEC3"
    },
    {
      "bufferView": 2,
      "byteOffset": 284340,
      "componentType": 5126,
      "count": 753,
      "max": [
        0.87260383367538452,
        1,
        0.98016029596328735
      ],
      "min": [
        -0.87260383367538452,
        -1,
        -0.87260383367538452
      ],
      "type": "VEC3"
    },
    {
      "bufferView": 1,
      "byteOffset": 91768,
      "componentType": 5126,
      "count": 753,
      "max": [
        1.0000014305114746,
        1
      ],
      "min": [
        -1.4116084230408887e-06,
        0.0044914395548403263
      ],
      "type": "VEC2"
    },
    {
      "bufferView": 0,
      "byteOffset": 87504,
      "componentType": 5125,
      "count": 1632,
      "max": [
        752
      ],
      "min": [
        0
      ],
      "type": "SCALAR"
    },
    {
      "bufferView": 2,
      "byteOffset": 293376,
      "componentType": 5126,
      "count": 11324,
      "max": [
        2.106586217880249,
        0.37881410121917725,
        0.75377738475799561
      ],
      "min": [
        -2.106586217880249,
        -0.37881410121917725,
        -2.0546877384185791
      ],
      "type": "VEC3"
    },
    {
      "bufferView": 2,
      "byteOffset": 429264,
      "componentType": 5126,
      "count": 11324,
      "max": [
        0.99743008613586426,
        0.99999988079071045,
        1
      ],
      "min": [
        -1,
        -0.99999988079071045,
        -0.997874915599823
      ],
      "type": "VEC3"
    },
    {
      "bufferView": 1,
      "byteOffset": 97792,
      "componentType": 5126,
      "count": 11324,
      "max": [
        1.0000002384185791,
        1
      ],
      "min": [
        0,
        -0.015033729374408722
      ],
      "type": "VEC2"
    },
    {
      "bufferView": 0,
      "byteOffset": 94032,
      "componentType": 5125,
      "count": 16884,
      "max": [
        11323
      ],
      "min": [
        0
      ],
      "type": "SCALAR"
    },
    {
      "bufferView": 2,
      "byteOffset": 565152,
      "componentType": 5126,
      "count": 2880,
      "max": [
        2.0524733066558838,
        0.32470142841339111,
        0.72275441884994507
      ],
      "min": [
        -2.0524733066558838,
        -0.32470142841339111,
        -2.0299999713897705
      ],
      "type": "VEC3"
    },
    {
      "bufferView": 2,
      "byteOffset": 599712,
      "componentType": 5126,
      "count": 2880,
      "max": [
        0.99985665082931519,
        0.96592599153518677,
        0.99998390674591064
      ],
      "min": [
        -0.99985665082931519,
        -0.96592593193054199,
        -0.9907304048538208
      ],
      "type": "VEC3"
    },
    {
      "bufferView": 1,
      "byteOffset": 188384,
      "componentType": 5126,
      "count": 2880,
      "max": [
        1.0000002384185791,
        1
      ],
      "min": [
        0.75,
        0.063416898250579834
      ],
      "type": "VEC2"
    },
    {
      "bufferView": 0,
      "byteOffset": 161568,
      "componentType": 5125,
      "count": 4320,
      "max": [
        2879
      ],
      "min": [
        0
      ],
      "type": "SCALAR"
    },
    {
      "bufferView": 2,
      "byteOffset": 634272,
      "componentType": 5126,
      "count": 360,
      "max": [
        2.0059592723846436,
        0.27818724513053894,
        0.50813215970993042
      ],
      "min": [
        -2.0059592723846436,
        -0.27818721532821655,
        -1.9122979640960693
      ],
      "type": "VEC3"
    },
    {
      "bufferView": 2,
      "byteOffset": 638592,
      "componentType": 5126,
      "count": 360,
      "max": [
        0.94744330644607544,
        0.96584659814834595,
        1
      ],
      "min": [
        -0.94744330644607544,
        -0.96584641933441162,
        -0.96398407220840454
      ],
      "type": "VEC3"
    },
    {
      "bufferView": 1,
      "byteOffset": 211424,
      "componentType": 5126,
      "count": 360,
      "max": [
        1.0000001192092896,
        0.97078323364257812
      ],
      "min": [
        0.75433295965194702,
        0.11257711797952652
      ],
      "type": "VEC2"
    },
    {
      "bufferView": 0,
      "byteOffset": 178848,
      "componentType": 5125,
      "count": 564,
      "max": [
        359
      ],
      "min": [
        0
      ],
      "type": "SCALAR"
    },
    {
      "bufferView": 3,
      "componentType": 5126,
      "count": 100,
      "max": [
        4.1666665077209473
      ],
      "min": [
        0.041666667908430099
      ],
      "type": "SCALAR"
    },
    {
      "bufferView": 4,
      "componentType": 5126,
      "count": 100,
      "max": [
        0,
        1,
        -0,
        1
      ],
      "min": [
        0,
        -0.99889028072357178,
        -0,
        7.5497901264043321e-08
      ],
      "type": "VEC4"
    },
    {
      "bufferView": 3,
      "byteOffset": 400,
      "componentType": 5126,
      "count": 3,
      "max": [
        4.1666665077209473
      ],
      "min": [
        0
      ],
      "type": "SCALAR"
    },
    {
      "bufferView": 4,
      "byteOffset": 1600,
      "componentType": 5126,
      "count": 3,
      "max": [
        1,
        1,
        -0,
        0
      ],
      "min": [
        0,
        0,
        -0,
        0
      ],
      "type": "VEC4"
    }
  ],
  "animations": [
    {
      "channels": [
        {
          "sampler": 0,
          "target": {
            "node": 9,
            "path": "rotation"
          }
        }
      ],
      "name": "Action",
      "samplers": [
        {
          "input": 28,
          "interpolation": "LINEAR",
          "output": 29
        }
      ]
    },
    {
      "channels": [
        {
          "sampler": 0,
          "target": {
            "node": 9,
            "path": "rotation"
          }
        }
      ],
      "name": "Torus.001Action",
      "samplers": [
        {
          "input": 30,
          "interpolation": "LINEAR",
          "output": 31
        }
      ]
    }
  ],
  "asset": {
    "extras": {
      "author": "GrimGenesis (https://sketchfab.com/GrimGenesis)",
      "license": "CC-BY-4.0 (http://creativecommons.org/licenses/by/4.0/)",
      "source": "https://sketchfab.com/3d-models/spaceship-orion-41de9d0d0eb74650b5fd98175d72fe71",
      "title": "Spaceship : Orion"
    },
    "generator": "Sketchfab-10.13.0",
    "version": "2.0"
  },
  "bufferViews": [
    {
      "buffer": 0,
      "byteLength": 181104,
      "byteOffset": 0,
      "name": "floatBufferViews",
      "target": 34963
    },
    {
      "buffer": 0,
      "byteLength": 214304,
      "byteOffset": 181104,
      "byteStride": 8,
      "name": "floatBufferViews",
      "target": 34962
    },
    {
      "buffer": 0,
      "byteLength": 642912,
      "byteOffset": 395408,
      "byteStride": 12,
      "name": "floatBufferViews",
      "target": 34962
    },
    {
      "buffer": 0,
      "byteLength": 412,
      "byteOffset": 1038320,
      "name": "floatBufferViews"
    },
    {
      "buffer": 0,
      "byteLength": 1648,
      "byteOffset": 1038732,
      "byteStride": 16,
      "name": "floatBufferViews"
    }
  ],
  "buffers": [
    {
      "byteLength": 1040380,
      "uri": "scene.bin"
    }
  ],
  "materials": [
    {
      "doubleSided": true,
      "emissiveFactor": [
        0,
        0,
        0
      ],
      "name": "body",
      "pbrMetallicRoughness": {
        "baseColorFactor": [
          0.070460200000000028,
          0.11906599999999998,
          0.016320100000000008,
          1
        ],
        "metallicFactor": 0.76640852578797847,
        "roughnessFactor": 0.35976136200021186
      }
    },
    {
      "doubleSided": true,
      "emissiveFactor": [
        0,
        0,
        0
      ],
      "name": "glass",
      "pbrMetallicRoughness": {
        "baseColorFactor": [
          0.037442200000000002,
          0.22225700000000015,
          0.42621300000000006,
          1
        ],
        "metallicFactor": 0.79068596840217342,
        "roughnessFactor": 0.13519501781890791
      }
    },
    {
      "doubleSided": true,
      "emissiveFactor": [
        0,
        0,
        0
      ],
      "name": "border",
      "pbrMetallicRoughness": {
        "baseColorFactor": [
          0,
          0.12988599999999997,
          0.05607809999999995,
          1
        ],
        "metallicFactor": 0.7482004438273322,
        "roughnessFactor": 0.35369200134666312
      }
    },
    {
      "doubleSided": true,
      "emissiveFactor": [
        0,
        0.3255588450965673,
        1
      ],
      "name": "thruster",
      "pbrMetallicRoughness": {
        "baseColorFactor": [
          0,
          1,
          0.16460807970228078,
          1
        ],
        "metallicFactor": 0.34762264069311433,
        "roughnessFactor": 0.5
      }
    }
  ],
  "meshes": [
    {
      "primitives": [
        {
          "attributes": {
            "NORMAL": 1,
            "POSITION": 0,
            "TEXCOORD_0": 2
          },
          "indices": 3,
          "material": 0,
          "mode": 4
        }
      ]
    },
    {
      "primitives": [
        {
          "attributes": {
            "NORMAL": 5,
            "POSITION": 4,
            "TEXCOORD_0": 6
          },
          "indices": 7,
          "material": 1,
          "mode": 4
        }
      ]
    },
    {
      "primitives": [
        {
          "attributes": {
            "NORMAL": 9,
            "POSITION": 8,
            "TEXCOORD_0": 10
          },
          "indices": 11,
          "material": 2,
          "mode": 4
        }
      ]
    },
    {
      "primitives": [
        {
          "attributes": {
            "NORMAL": 13,
            "POSITION": 12,
            "TEXCOORD_0": 14
          },
          "indices": 15,
          "material": 3,
          "mode": 4
        }
      ]
    },
    {
      "primitives": [
        {
          "attributes": {
            "NORMAL": 17,
            "POSITION": 16,
            "TEXCOORD_0": 18
          },
          "indices": 19,
          "material": 2,
          "mode": 4
        }
      ]
    },
    {
      "primitives": [
        {
          "attributes": {
            "NORMAL": 21,
            "POSITION": 20,
            "TEXCOORD_0": 22
          },
          "indices": 23,
          "material": 0,
          "mode": 4
        }
      ]
    },
    {
      "primitives": [
        {
          "attributes": {
            "NORMAL": 25,
            "POSITION": 24,
            "TEXCOORD_0": 26
          },
          "indices": 27,
          "material": 3,
          "mode": 4
        }
      ]
    }
  ],
  "nodes": [
    {
      "children": [
        1
      ],
      "name": "RootNode (gltf orientation matrix)",
      "rotation": [
        -0.70710678118654746,
        -0,
        -0,
        0.70710678118654757
      ]
    },
    {
      "children": [
        2
      ],
      "name": "RootNode (model correction matrix)"
    },
    {
      "children": [
        3
      ],
      "name": "root"
    },
    {
      "children": [
        4,
        9
      ],
      "matrix": [
        1,
        0,
        0,
        0,
        0,
        2.2204460492503131e-16,
        1,
        0,
        0,
        -1,
        2.2204460492503131e-16,
        0,
        0,
        0,
        0,
        1
      ],
      "name": "GLTF_SceneRootNode"
    },
    {
      "children": [
        5,
        6,
        7,
        8
      ],
      "matrix": [
        1,
        0,
        0,
        0,
        0,
        1,
        0,
        0,
        0,
        0,
        1,
        0,
        0,
        0.59217482805252075,
        0,
        1
      ],
      "name": "Sphere_1"
    },
    {
      "mesh": 0,
      "name": ""
    },
    {
      "mesh": 1,
      "name": ""
    },
    {
      "mesh": 2,
      "name": ""
    },
    {
      "mesh": 3,
      "name": ""
    },
    {
      "children": [
        10,
        11,
        12
      ],
      "name": "Torus.001_2",
      "translation": [
        0,
        0.59217482805252075,
        0
      ]
    },
    {
      "mesh": 4,
      "name": ""
    },
    {
      "mesh": 5,
      "name": ""
    },
    {
      "mesh": 6,
      "name": ""
    }
  ],
  "scene": 0,
  "scenes": [
    {
      "name": "OSG_Scene",
      "nodes": [
        0
      ]
    }
  ]
}

